<?xml version="1.0" encoding="UTF-8"?>
<svg id="Layer_2" data-name="Layer 2" xmlns="http://www.w3.org/2000/svg" viewBox="0 0 618.55 133.95">
  <g id="Layer_1-2" data-name="Layer 1">
    <g>
      <path d="m65.67.75c-21.89,0-32.18.19-47.52,1.68L0,131.52h28.44l6.74-48.08c7.48.94,15.9,1.69,24.13,1.69,31.62,0,43.78-7.3,48.46-41.16C112.25,11.79,99.9.75,65.67.75Zm14.03,41.16c-2.62,17.59-6.92,21.33-22.26,21.33h-19.46l5.8-40.41,21.14-.19c13.1,0,17.02,3.93,14.78,19.27Z"/>
      <path d="m168.57,36.67c-33.86,0-49.02,9.73-53.51,46.77-3.93,33.3,7.11,50.33,43.22,50.33,12.54,0,29-1.68,40.6-6.55l-1.87-17.59c-11.04,1.31-26.57,2.06-35.55,2.06-11.6,0-17.96-2.43-18.33-15.34l27.13-2.25c23.76-1.68,35.17-7.67,37.79-25.63,2.81-19.64-5.43-31.8-39.48-31.8Zm12.72,29.19c-1.12,9.17-5.8,11.22-15.15,11.97l-21.51,2.06c3.18-18.71,7.86-23.01,22.08-23.01,11.6-.19,15.34.37,14.59,8.98Z"/>
      <path d="m269.6,13.47h-27.13l-3.74,25.82-17.03.93-2.24,17.59h16.65l-7.11,48.83c-2.43,16.84,6.55,27.13,23.95,27.13,5.8,0,18.52-.93,25.82-3.55l-1.31-19.46h-12.35c-7.67,0-8.98-1.87-8.05-8.79l6.17-44.15h25.63l2.62-18.52h-25.63l3.74-25.82Z"/>
      <path d="m366.69,24.51c10.48,0,22.82.37,35.55.93l3.55-20.77c-12.35-3.55-26.75-4.68-39.48-4.68-38.35,0-58.75,11.23-65.85,65.86-5.99,49.02,6.74,68.1,32.18,68.1,17.96,0,30.12-8.79,38.91-18.52l.75,16.09h20.77l10.48-74.65h-.54l.14-.11-47.75-.65c-1.79-.02-3.09,1.68-2.6,3.4l1.45,5.03c.66,2.29,2.31,4.16,4.51,5.1l14.87,6.34-2.81,20.54c-8.42,7.67-14.97,12.72-26.38,12.72-14.97,0-18.15-9.54-14.22-41.16,4.86-36.11,12.72-43.59,36.48-43.59Z"/>
      <path d="m470.34,36.67c-33.86,0-49.02,9.73-53.51,46.77-3.93,33.3,7.11,50.33,43.22,50.33,12.53,0,29-1.68,40.6-6.55l-1.87-17.59c-11.04,1.31-26.57,2.06-35.55,2.06-11.6,0-17.96-2.43-18.33-15.34l27.13-2.25c23.76-1.68,35.17-7.67,37.79-25.63,2.81-19.64-5.43-31.8-39.48-31.8Zm12.72,29.19c-1.12,9.17-5.8,11.22-15.15,11.97l-21.51,2.06c3.18-18.71,7.86-23.01,22.08-23.01,11.6-.19,15.34.37,14.59,8.98Z"/>
      <path d="m595.5,36.67c-13.84,0-28.25,7.3-42.09,20.95v-18.33h-21.7l-12.91,92.23h27.69l7.86-56.87c11.97-9.54,20.39-14.41,28.81-14.59,5.99-.19,7.3,2.25,6.17,11.04l-8.42,60.43h27.5l9.73-68.66c2.62-17.21-7.48-26.19-22.64-26.19Z"/>
    </g>
  </g>
</svg>